<svg width="250" height="582" viewBox="0 0 250 582" fill="none" xmlns="http://www.w3.org/2000/svg">
<path d="M0 23H188" stroke="white" stroke-dasharray="2 2"/>
<path d="M2 9.19466C7.10861 20.7279 18.1618 49.2575 21.5056 71.1099C24.8494 92.9623 22.8989 144.558 21.5056 167.625C21.5056 200.403 21.5056 269.239 21.5056 282.35C21.5056 298.739 25.6854 346.086 21.5056 366.118C17.3258 386.149 21.5056 431.675 21.5056 458.991C21.5056 480.843 8.50187 549.435 2 581M175.461 1C170.816 11.9262 159.717 44.887 160.831 56.5416C162.225 71.1099 160.831 129.383 160.831 158.52C160.831 187.656 149.767 235.534 153.865 262.319C158.045 289.634 153.865 365.207 153.865 401.628C153.865 438.049 154.562 505.427 167.101 530.922C177.133 551.317 183.356 570.074 188 581" stroke="white"/>
<path d="M196.054 30V29.1051L199.415 25.4261C199.809 24.9953 200.134 24.6207 200.389 24.3026C200.644 23.9811 200.833 23.6795 200.956 23.3977C201.082 23.1127 201.145 22.8144 201.145 22.5028C201.145 22.1449 201.059 21.835 200.886 21.5732C200.717 21.3113 200.485 21.1091 200.19 20.9666C199.895 20.8241 199.564 20.7528 199.196 20.7528C198.805 20.7528 198.464 20.834 198.172 20.9964C197.884 21.1555 197.66 21.3793 197.501 21.6676C197.345 21.956 197.267 22.294 197.267 22.6818H196.094C196.094 22.0852 196.231 21.5616 196.506 21.1108C196.781 20.66 197.156 20.3087 197.63 20.0568C198.107 19.8049 198.643 19.679 199.236 19.679C199.832 19.679 200.361 19.8049 200.822 20.0568C201.282 20.3087 201.644 20.6484 201.906 21.076C202.167 21.5036 202.298 21.9792 202.298 22.5028C202.298 22.8774 202.23 23.2436 202.094 23.6016C201.962 23.9562 201.73 24.3523 201.398 24.7898C201.07 25.224 200.615 25.7543 200.031 26.3807L197.744 28.8267V28.9062H202.477V30H196.054ZM207.852 30.1392C207.103 30.1392 206.464 29.9354 205.938 29.5277C205.411 29.1167 205.008 28.5218 204.729 27.7429C204.451 26.9607 204.312 26.0161 204.312 24.9091C204.312 23.8087 204.451 22.8691 204.729 22.0902C205.011 21.308 205.415 20.7114 205.942 20.3004C206.473 19.8861 207.109 19.679 207.852 19.679C208.594 19.679 209.229 19.8861 209.756 20.3004C210.286 20.7114 210.69 21.308 210.969 22.0902C211.25 22.8691 211.391 23.8087 211.391 24.9091C211.391 26.0161 211.252 26.9607 210.974 27.7429C210.695 28.5218 210.293 29.1167 209.766 29.5277C209.239 29.9354 208.601 30.1392 207.852 30.1392ZM207.852 29.0455C208.594 29.0455 209.171 28.6875 209.582 27.9716C209.993 27.2557 210.198 26.2348 210.198 24.9091C210.198 24.0275 210.104 23.2768 209.915 22.657C209.729 22.0372 209.461 21.5649 209.109 21.2401C208.761 20.9152 208.342 20.7528 207.852 20.7528C207.116 20.7528 206.541 21.1158 206.126 21.8416C205.712 22.5642 205.505 23.5866 205.505 24.9091C205.505 25.7907 205.598 26.5398 205.783 27.1562C205.969 27.7727 206.236 28.2417 206.584 28.5632C206.935 28.8847 207.358 29.0455 207.852 29.0455ZM216.602 30.1392C215.853 30.1392 215.214 29.9354 214.688 29.5277C214.161 29.1167 213.758 28.5218 213.479 27.7429C213.201 26.9607 213.062 26.0161 213.062 24.9091C213.062 23.8087 213.201 22.8691 213.479 22.0902C213.761 21.308 214.165 20.7114 214.692 20.3004C215.223 19.8861 215.859 19.679 216.602 19.679C217.344 19.679 217.979 19.8861 218.506 20.3004C219.036 20.7114 219.44 21.308 219.719 22.0902C220 22.8691 220.141 23.8087 220.141 24.9091C220.141 26.0161 220.002 26.9607 219.724 27.7429C219.445 28.5218 219.043 29.1167 218.516 29.5277C217.989 29.9354 217.351 30.1392 216.602 30.1392ZM216.602 29.0455C217.344 29.0455 217.921 28.6875 218.332 27.9716C218.743 27.2557 218.948 26.2348 218.948 24.9091C218.948 24.0275 218.854 23.2768 218.665 22.657C218.479 22.0372 218.211 21.5649 217.859 21.2401C217.511 20.9152 217.092 20.7528 216.602 20.7528C215.866 20.7528 215.291 21.1158 214.876 21.8416C214.462 22.5642 214.255 23.5866 214.255 24.9091C214.255 25.7907 214.348 26.5398 214.533 27.1562C214.719 27.7727 214.986 28.2417 215.334 28.5632C215.685 28.8847 216.108 29.0455 216.602 29.0455ZM226.829 23.308L228.061 23.63C227.837 24.1527 227.594 24.7033 227.333 25.282C227.081 25.8513 226.819 26.4253 226.549 27.004C226.278 27.5733 226.003 28.1193 225.723 28.642C225.443 29.1553 225.177 29.6267 224.925 30.056L223.945 29.734C224.197 29.3047 224.458 28.824 224.729 28.292C224.999 27.76 225.261 27.2047 225.513 26.626C225.774 26.0473 226.017 25.4733 226.241 24.904C226.465 24.3347 226.661 23.8027 226.829 23.308ZM222.237 29.412C222.871 29.3933 223.59 29.37 224.393 29.342C225.205 29.314 226.063 29.2813 226.969 29.244C227.883 29.1973 228.817 29.1553 229.769 29.118C230.73 29.0713 231.682 29.0293 232.625 28.992L232.597 29.986C231.374 30.0513 230.142 30.1167 228.901 30.182C227.659 30.2567 226.479 30.322 225.359 30.378C224.248 30.434 223.254 30.4807 222.377 30.518L222.237 29.412ZM229.517 26.388L230.511 25.912C230.94 26.4067 231.374 26.9387 231.813 27.508C232.251 28.068 232.657 28.6187 233.031 29.16C233.404 29.7013 233.703 30.1867 233.927 30.616L232.877 31.19C232.653 30.7513 232.354 30.2567 231.981 29.706C231.617 29.146 231.215 28.5767 230.777 27.998C230.347 27.41 229.927 26.8733 229.517 26.388ZM225.415 18.646L226.577 18.968C226.269 19.724 225.905 20.4567 225.485 21.166C225.065 21.8753 224.617 22.538 224.141 23.154C223.665 23.7607 223.175 24.2927 222.671 24.75C222.605 24.6753 222.512 24.5913 222.391 24.498C222.269 24.4047 222.143 24.3113 222.013 24.218C221.882 24.1247 221.77 24.05 221.677 23.994C222.19 23.574 222.675 23.084 223.133 22.524C223.599 21.9547 224.029 21.3387 224.421 20.676C224.813 20.0133 225.144 19.3367 225.415 18.646ZM230.413 18.646C230.646 19.1033 230.921 19.5747 231.239 20.06C231.565 20.5453 231.911 21.0213 232.275 21.488C232.639 21.9547 233.003 22.3933 233.367 22.804C233.731 23.2147 234.076 23.5647 234.403 23.854C234.309 23.9287 234.207 24.0173 234.095 24.12C233.983 24.2227 233.875 24.33 233.773 24.442C233.67 24.554 233.581 24.6567 233.507 24.75C233.189 24.414 232.844 24.022 232.471 23.574C232.107 23.126 231.738 22.65 231.365 22.146C231.001 21.642 230.646 21.1287 230.301 20.606C229.955 20.074 229.652 19.5607 229.391 19.066L230.413 18.646ZM237.595 23.532H245.617V24.554H237.595V23.532ZM245.253 23.532H246.345C246.345 23.532 246.345 23.5647 246.345 23.63C246.345 23.6953 246.345 23.77 246.345 23.854C246.345 23.9287 246.34 23.9893 246.331 24.036C246.275 25.128 246.219 26.0567 246.163 26.822C246.116 27.578 246.055 28.208 245.981 28.712C245.915 29.216 245.841 29.6127 245.757 29.902C245.673 30.1913 245.565 30.4013 245.435 30.532C245.295 30.7093 245.141 30.8307 244.973 30.896C244.805 30.9707 244.599 31.0173 244.357 31.036C244.123 31.0547 243.801 31.0593 243.391 31.05C242.989 31.05 242.569 31.036 242.131 31.008C242.121 30.8493 242.084 30.672 242.019 30.476C241.963 30.28 241.883 30.1073 241.781 29.958C242.238 29.9953 242.663 30.0187 243.055 30.028C243.447 30.0467 243.727 30.056 243.895 30.056C244.035 30.056 244.151 30.042 244.245 30.014C244.338 29.986 244.417 29.9393 244.483 29.874C244.623 29.7433 244.735 29.4633 244.819 29.034C244.912 28.5953 244.991 27.9513 245.057 27.102C245.131 26.2433 245.197 25.1233 245.253 23.742V23.532ZM239.513 18.52L240.633 18.842C240.287 19.626 239.881 20.3773 239.415 21.096C238.957 21.8147 238.453 22.4727 237.903 23.07C237.361 23.6673 236.797 24.19 236.209 24.638C236.143 24.5633 236.055 24.4747 235.943 24.372C235.831 24.2693 235.714 24.1667 235.593 24.064C235.481 23.9613 235.383 23.8773 235.299 23.812C235.896 23.42 236.461 22.9487 236.993 22.398C237.525 21.8473 238.005 21.2453 238.435 20.592C238.864 19.9293 239.223 19.2387 239.513 18.52ZM244.399 18.492C244.623 18.9587 244.898 19.4393 245.225 19.934C245.551 20.4193 245.906 20.8907 246.289 21.348C246.671 21.796 247.063 22.216 247.465 22.608C247.875 22.9907 248.272 23.3173 248.655 23.588C248.561 23.6627 248.454 23.756 248.333 23.868C248.221 23.9707 248.113 24.078 248.011 24.19C247.917 24.302 247.838 24.4093 247.773 24.512C247.381 24.1947 246.984 23.826 246.583 23.406C246.181 22.9767 245.785 22.5147 245.393 22.02C245.01 21.5253 244.646 21.012 244.301 20.48C243.965 19.948 243.661 19.4207 243.391 18.898L244.399 18.492ZM240.549 23.826H241.683C241.608 24.5913 241.487 25.338 241.319 26.066C241.151 26.794 240.894 27.48 240.549 28.124C240.203 28.768 239.723 29.3513 239.107 29.874C238.5 30.3967 237.707 30.8353 236.727 31.19C236.68 31.0967 236.619 30.9893 236.545 30.868C236.47 30.756 236.386 30.644 236.293 30.532C236.209 30.4293 236.125 30.3407 236.041 30.266C236.955 29.9673 237.693 29.5893 238.253 29.132C238.822 28.6653 239.261 28.1473 239.569 27.578C239.877 27.0087 240.101 26.4067 240.241 25.772C240.381 25.1373 240.483 24.4887 240.549 23.826Z" fill="white"/>
<path d="M0 551H188" stroke="white" stroke-dasharray="2 2"/>
<path d="M0 419H188" stroke="white" stroke-dasharray="2 2"/>
<path d="M0 287H188" stroke="white" stroke-dasharray="2 2"/>
<path d="M0 155H188" stroke="white" stroke-dasharray="2 2"/>
<path d="M201.375 557.139C200.626 557.139 199.988 556.935 199.461 556.528C198.934 556.117 198.531 555.522 198.253 554.743C197.974 553.961 197.835 553.016 197.835 551.909C197.835 550.809 197.974 549.869 198.253 549.09C198.535 548.308 198.939 547.711 199.466 547.3C199.996 546.886 200.633 546.679 201.375 546.679C202.117 546.679 202.752 546.886 203.279 547.3C203.809 547.711 204.214 548.308 204.492 549.09C204.774 549.869 204.915 550.809 204.915 551.909C204.915 553.016 204.776 553.961 204.497 554.743C204.219 555.522 203.816 556.117 203.289 556.528C202.762 556.935 202.124 557.139 201.375 557.139ZM201.375 556.045C202.117 556.045 202.694 555.687 203.105 554.972C203.516 554.256 203.722 553.235 203.722 551.909C203.722 551.027 203.627 550.277 203.438 549.657C203.253 549.037 202.984 548.565 202.633 548.24C202.285 547.915 201.866 547.753 201.375 547.753C200.639 547.753 200.064 548.116 199.65 548.842C199.236 549.564 199.028 550.587 199.028 551.909C199.028 552.791 199.121 553.54 199.307 554.156C199.492 554.773 199.759 555.242 200.107 555.563C200.459 555.885 200.881 556.045 201.375 556.045ZM211.602 550.308L212.834 550.63C212.61 551.153 212.367 551.703 212.106 552.282C211.854 552.851 211.593 553.425 211.322 554.004C211.051 554.573 210.776 555.119 210.496 555.642C210.216 556.155 209.95 556.627 209.698 557.056L208.718 556.734C208.97 556.305 209.231 555.824 209.502 555.292C209.773 554.76 210.034 554.205 210.286 553.626C210.547 553.047 210.79 552.473 211.014 551.904C211.238 551.335 211.434 550.803 211.602 550.308ZM207.01 556.412C207.645 556.393 208.363 556.37 209.166 556.342C209.978 556.314 210.837 556.281 211.742 556.244C212.657 556.197 213.59 556.155 214.542 556.118C215.503 556.071 216.455 556.029 217.398 555.992L217.37 556.986C216.147 557.051 214.915 557.117 213.674 557.182C212.433 557.257 211.252 557.322 210.132 557.378C209.021 557.434 208.027 557.481 207.15 557.518L207.01 556.412ZM214.29 553.388L215.284 552.912C215.713 553.407 216.147 553.939 216.586 554.508C217.025 555.068 217.431 555.619 217.804 556.16C218.177 556.701 218.476 557.187 218.7 557.616L217.65 558.19C217.426 557.751 217.127 557.257 216.754 556.706C216.39 556.146 215.989 555.577 215.55 554.998C215.121 554.41 214.701 553.873 214.29 553.388ZM210.188 545.646L211.35 545.968C211.042 546.724 210.678 547.457 210.258 548.166C209.838 548.875 209.39 549.538 208.914 550.154C208.438 550.761 207.948 551.293 207.444 551.75C207.379 551.675 207.285 551.591 207.164 551.498C207.043 551.405 206.917 551.311 206.786 551.218C206.655 551.125 206.543 551.05 206.45 550.994C206.963 550.574 207.449 550.084 207.906 549.524C208.373 548.955 208.802 548.339 209.194 547.676C209.586 547.013 209.917 546.337 210.188 545.646ZM215.186 545.646C215.419 546.103 215.695 546.575 216.012 547.06C216.339 547.545 216.684 548.021 217.048 548.488C217.412 548.955 217.776 549.393 218.14 549.804C218.504 550.215 218.849 550.565 219.176 550.854C219.083 550.929 218.98 551.017 218.868 551.12C218.756 551.223 218.649 551.33 218.546 551.442C218.443 551.554 218.355 551.657 218.28 551.75C217.963 551.414 217.617 551.022 217.244 550.574C216.88 550.126 216.511 549.65 216.138 549.146C215.774 548.642 215.419 548.129 215.074 547.606C214.729 547.074 214.425 546.561 214.164 546.066L215.186 545.646ZM222.368 550.532H230.39V551.554H222.368V550.532ZM230.026 550.532H231.118C231.118 550.532 231.118 550.565 231.118 550.63C231.118 550.695 231.118 550.77 231.118 550.854C231.118 550.929 231.113 550.989 231.104 551.036C231.048 552.128 230.992 553.057 230.936 553.822C230.889 554.578 230.829 555.208 230.754 555.712C230.689 556.216 230.614 556.613 230.53 556.902C230.446 557.191 230.339 557.401 230.208 557.532C230.068 557.709 229.914 557.831 229.746 557.896C229.578 557.971 229.373 558.017 229.13 558.036C228.897 558.055 228.575 558.059 228.164 558.05C227.763 558.05 227.343 558.036 226.904 558.008C226.895 557.849 226.857 557.672 226.792 557.476C226.736 557.28 226.657 557.107 226.554 556.958C227.011 556.995 227.436 557.019 227.828 557.028C228.22 557.047 228.5 557.056 228.668 557.056C228.808 557.056 228.925 557.042 229.018 557.014C229.111 556.986 229.191 556.939 229.256 556.874C229.396 556.743 229.508 556.463 229.592 556.034C229.685 555.595 229.765 554.951 229.83 554.102C229.905 553.243 229.97 552.123 230.026 550.742V550.532ZM224.286 545.52L225.406 545.842C225.061 546.626 224.655 547.377 224.188 548.096C223.731 548.815 223.227 549.473 222.676 550.07C222.135 550.667 221.57 551.19 220.982 551.638C220.917 551.563 220.828 551.475 220.716 551.372C220.604 551.269 220.487 551.167 220.366 551.064C220.254 550.961 220.156 550.877 220.072 550.812C220.669 550.42 221.234 549.949 221.766 549.398C222.298 548.847 222.779 548.245 223.208 547.592C223.637 546.929 223.997 546.239 224.286 545.52ZM229.172 545.492C229.396 545.959 229.671 546.439 229.998 546.934C230.325 547.419 230.679 547.891 231.062 548.348C231.445 548.796 231.837 549.216 232.238 549.608C232.649 549.991 233.045 550.317 233.428 550.588C233.335 550.663 233.227 550.756 233.106 550.868C232.994 550.971 232.887 551.078 232.784 551.19C232.691 551.302 232.611 551.409 232.546 551.512C232.154 551.195 231.757 550.826 231.356 550.406C230.955 549.977 230.558 549.515 230.166 549.02C229.783 548.525 229.419 548.012 229.074 547.48C228.738 546.948 228.435 546.421 228.164 545.898L229.172 545.492ZM225.322 550.826H226.456C226.381 551.591 226.26 552.338 226.092 553.066C225.924 553.794 225.667 554.48 225.322 555.124C224.977 555.768 224.496 556.351 223.88 556.874C223.273 557.397 222.48 557.835 221.5 558.19C221.453 558.097 221.393 557.989 221.318 557.868C221.243 557.756 221.159 557.644 221.066 557.532C220.982 557.429 220.898 557.341 220.814 557.266C221.729 556.967 222.466 556.589 223.026 556.132C223.595 555.665 224.034 555.147 224.342 554.578C224.65 554.009 224.874 553.407 225.014 552.772C225.154 552.137 225.257 551.489 225.322 550.826Z" fill="white"/>
<path d="M201.236 427.139C200.652 427.139 200.127 427.023 199.66 426.791C199.192 426.559 198.818 426.241 198.536 425.837C198.254 425.432 198.1 424.972 198.074 424.455H199.267C199.313 424.915 199.522 425.296 199.893 425.598C200.268 425.896 200.715 426.045 201.236 426.045C201.653 426.045 202.025 425.948 202.349 425.752C202.678 425.557 202.934 425.288 203.12 424.947C203.309 424.602 203.403 424.213 203.403 423.778C203.403 423.334 203.306 422.938 203.11 422.59C202.918 422.239 202.653 421.962 202.315 421.76C201.977 421.558 201.59 421.455 201.156 421.452C200.845 421.448 200.525 421.496 200.197 421.596C199.869 421.692 199.598 421.816 199.386 421.969L198.233 421.83L198.849 416.818H204.139V417.912H199.884L199.526 420.915H199.585C199.794 420.749 200.056 420.612 200.371 420.502C200.686 420.393 201.014 420.338 201.355 420.338C201.978 420.338 202.533 420.487 203.021 420.786C203.511 421.08 203.896 421.485 204.174 421.999C204.456 422.512 204.597 423.099 204.597 423.759C204.597 424.408 204.451 424.988 204.159 425.499C203.871 426.006 203.473 426.407 202.966 426.702C202.459 426.993 201.882 427.139 201.236 427.139ZM209.893 427.139C209.144 427.139 208.506 426.935 207.979 426.528C207.452 426.117 207.049 425.522 206.77 424.743C206.492 423.961 206.353 423.016 206.353 421.909C206.353 420.809 206.492 419.869 206.77 419.09C207.052 418.308 207.456 417.711 207.983 417.3C208.514 416.886 209.15 416.679 209.893 416.679C210.635 416.679 211.27 416.886 211.797 417.3C212.327 417.711 212.731 418.308 213.01 419.09C213.291 419.869 213.432 420.809 213.432 421.909C213.432 423.016 213.293 423.961 213.015 424.743C212.736 425.522 212.334 426.117 211.807 426.528C211.28 426.935 210.642 427.139 209.893 427.139ZM209.893 426.045C210.635 426.045 211.212 425.687 211.623 424.972C212.034 424.256 212.239 423.235 212.239 421.909C212.239 421.027 212.145 420.277 211.956 419.657C211.77 419.037 211.502 418.565 211.15 418.24C210.802 417.915 210.383 417.753 209.893 417.753C209.157 417.753 208.582 418.116 208.167 418.842C207.753 419.564 207.546 420.587 207.546 421.909C207.546 422.791 207.639 423.54 207.824 424.156C208.01 424.773 208.277 425.242 208.625 425.563C208.976 425.885 209.399 426.045 209.893 426.045ZM220.12 420.308L221.352 420.63C221.128 421.153 220.885 421.703 220.624 422.282C220.372 422.851 220.11 423.425 219.84 424.004C219.569 424.573 219.294 425.119 219.014 425.642C218.734 426.155 218.468 426.627 218.216 427.056L217.236 426.734C217.488 426.305 217.749 425.824 218.02 425.292C218.29 424.76 218.552 424.205 218.804 423.626C219.065 423.047 219.308 422.473 219.532 421.904C219.756 421.335 219.952 420.803 220.12 420.308ZM215.528 426.412C216.162 426.393 216.881 426.37 217.684 426.342C218.496 426.314 219.354 426.281 220.26 426.244C221.174 426.197 222.108 426.155 223.06 426.118C224.021 426.071 224.973 426.029 225.916 425.992L225.888 426.986C224.665 427.051 223.433 427.117 222.192 427.182C220.95 427.257 219.77 427.322 218.65 427.378C217.539 427.434 216.545 427.481 215.668 427.518L215.528 426.412ZM222.808 423.388L223.802 422.912C224.231 423.407 224.665 423.939 225.104 424.508C225.542 425.068 225.948 425.619 226.322 426.16C226.695 426.701 226.994 427.187 227.218 427.616L226.168 428.19C225.944 427.751 225.645 427.257 225.272 426.706C224.908 426.146 224.506 425.577 224.068 424.998C223.638 424.41 223.218 423.873 222.808 423.388ZM218.706 415.646L219.868 415.968C219.56 416.724 219.196 417.457 218.776 418.166C218.356 418.875 217.908 419.538 217.432 420.154C216.956 420.761 216.466 421.293 215.962 421.75C215.896 421.675 215.803 421.591 215.682 421.498C215.56 421.405 215.434 421.311 215.304 421.218C215.173 421.125 215.061 421.05 214.968 420.994C215.481 420.574 215.966 420.084 216.424 419.524C216.89 418.955 217.32 418.339 217.712 417.676C218.104 417.013 218.435 416.337 218.706 415.646ZM223.704 415.646C223.937 416.103 224.212 416.575 224.53 417.06C224.856 417.545 225.202 418.021 225.566 418.488C225.93 418.955 226.294 419.393 226.658 419.804C227.022 420.215 227.367 420.565 227.694 420.854C227.6 420.929 227.498 421.017 227.386 421.12C227.274 421.223 227.166 421.33 227.064 421.442C226.961 421.554 226.872 421.657 226.798 421.75C226.48 421.414 226.135 421.022 225.762 420.574C225.398 420.126 225.029 419.65 224.656 419.146C224.292 418.642 223.937 418.129 223.592 417.606C223.246 417.074 222.943 416.561 222.682 416.066L223.704 415.646ZM230.886 420.532H238.908V421.554H230.886V420.532ZM238.544 420.532H239.636C239.636 420.532 239.636 420.565 239.636 420.63C239.636 420.695 239.636 420.77 239.636 420.854C239.636 420.929 239.631 420.989 239.622 421.036C239.566 422.128 239.51 423.057 239.454 423.822C239.407 424.578 239.346 425.208 239.272 425.712C239.206 426.216 239.132 426.613 239.048 426.902C238.964 427.191 238.856 427.401 238.726 427.532C238.586 427.709 238.432 427.831 238.264 427.896C238.096 427.971 237.89 428.017 237.648 428.036C237.414 428.055 237.092 428.059 236.682 428.05C236.28 428.05 235.86 428.036 235.422 428.008C235.412 427.849 235.375 427.672 235.31 427.476C235.254 427.28 235.174 427.107 235.072 426.958C235.529 426.995 235.954 427.019 236.346 427.028C236.738 427.047 237.018 427.056 237.186 427.056C237.326 427.056 237.442 427.042 237.536 427.014C237.629 426.986 237.708 426.939 237.774 426.874C237.914 426.743 238.026 426.463 238.11 426.034C238.203 425.595 238.282 424.951 238.348 424.102C238.422 423.243 238.488 422.123 238.544 420.742V420.532ZM232.804 415.52L233.924 415.842C233.578 416.626 233.172 417.377 232.706 418.096C232.248 418.815 231.744 419.473 231.194 420.07C230.652 420.667 230.088 421.19 229.5 421.638C229.434 421.563 229.346 421.475 229.234 421.372C229.122 421.269 229.005 421.167 228.884 421.064C228.772 420.961 228.674 420.877 228.59 420.812C229.187 420.42 229.752 419.949 230.284 419.398C230.816 418.847 231.296 418.245 231.726 417.592C232.155 416.929 232.514 416.239 232.804 415.52ZM237.69 415.492C237.914 415.959 238.189 416.439 238.516 416.934C238.842 417.419 239.197 417.891 239.58 418.348C239.962 418.796 240.354 419.216 240.756 419.608C241.166 419.991 241.563 420.317 241.946 420.588C241.852 420.663 241.745 420.756 241.624 420.868C241.512 420.971 241.404 421.078 241.302 421.19C241.208 421.302 241.129 421.409 241.064 421.512C240.672 421.195 240.275 420.826 239.874 420.406C239.472 419.977 239.076 419.515 238.684 419.02C238.301 418.525 237.937 418.012 237.592 417.48C237.256 416.948 236.952 416.421 236.682 415.898L237.69 415.492ZM233.84 420.826H234.974C234.899 421.591 234.778 422.338 234.61 423.066C234.442 423.794 234.185 424.48 233.84 425.124C233.494 425.768 233.014 426.351 232.398 426.874C231.791 427.397 230.998 427.835 230.018 428.19C229.971 428.097 229.91 427.989 229.836 427.868C229.761 427.756 229.677 427.644 229.584 427.532C229.5 427.429 229.416 427.341 229.332 427.266C230.246 426.967 230.984 426.589 231.544 426.132C232.113 425.665 232.552 425.147 232.86 424.578C233.168 424.009 233.392 423.407 233.532 422.772C233.672 422.137 233.774 421.489 233.84 420.826Z" fill="white"/>
<path d="M201.634 283.818V294H200.401V285.111H200.341L197.855 286.761V285.509L200.401 283.818H201.634ZM207.883 294.139C207.134 294.139 206.496 293.935 205.969 293.528C205.442 293.117 205.039 292.522 204.761 291.743C204.482 290.961 204.343 290.016 204.343 288.909C204.343 287.809 204.482 286.869 204.761 286.09C205.042 285.308 205.447 284.711 205.974 284.3C206.504 283.886 207.14 283.679 207.883 283.679C208.625 283.679 209.26 283.886 209.787 284.3C210.317 284.711 210.722 285.308 211 286.09C211.282 286.869 211.423 287.809 211.423 288.909C211.423 290.016 211.283 290.961 211.005 291.743C210.727 292.522 210.324 293.117 209.797 293.528C209.27 293.935 208.632 294.139 207.883 294.139ZM207.883 293.045C208.625 293.045 209.202 292.687 209.613 291.972C210.024 291.256 210.229 290.235 210.229 288.909C210.229 288.027 210.135 287.277 209.946 286.657C209.76 286.037 209.492 285.565 209.141 285.24C208.793 284.915 208.373 284.753 207.883 284.753C207.147 284.753 206.572 285.116 206.158 285.842C205.743 286.564 205.536 287.587 205.536 288.909C205.536 289.791 205.629 290.54 205.815 291.156C206 291.773 206.267 292.242 206.615 292.563C206.966 292.885 207.389 293.045 207.883 293.045ZM216.633 294.139C215.884 294.139 215.246 293.935 214.719 293.528C214.192 293.117 213.789 292.522 213.511 291.743C213.232 290.961 213.093 290.016 213.093 288.909C213.093 287.809 213.232 286.869 213.511 286.09C213.792 285.308 214.197 284.711 214.724 284.3C215.254 283.886 215.89 283.679 216.633 283.679C217.375 283.679 218.01 283.886 218.537 284.3C219.067 284.711 219.472 285.308 219.75 286.09C220.032 286.869 220.173 287.809 220.173 288.909C220.173 290.016 220.033 290.961 219.755 291.743C219.477 292.522 219.074 293.117 218.547 293.528C218.02 293.935 217.382 294.139 216.633 294.139ZM216.633 293.045C217.375 293.045 217.952 292.687 218.363 291.972C218.774 291.256 218.979 290.235 218.979 288.909C218.979 288.027 218.885 287.277 218.696 286.657C218.51 286.037 218.242 285.565 217.891 285.24C217.543 284.915 217.123 284.753 216.633 284.753C215.897 284.753 215.322 285.116 214.908 285.842C214.493 286.564 214.286 287.587 214.286 288.909C214.286 289.791 214.379 290.54 214.565 291.156C214.75 291.773 215.017 292.242 215.365 292.563C215.716 292.885 216.139 293.045 216.633 293.045ZM226.86 287.308L228.092 287.63C227.868 288.153 227.625 288.703 227.364 289.282C227.112 289.851 226.85 290.425 226.58 291.004C226.309 291.573 226.034 292.119 225.754 292.642C225.474 293.155 225.208 293.627 224.956 294.056L223.976 293.734C224.228 293.305 224.489 292.824 224.76 292.292C225.03 291.76 225.292 291.205 225.544 290.626C225.805 290.047 226.048 289.473 226.272 288.904C226.496 288.335 226.692 287.803 226.86 287.308ZM222.268 293.412C222.902 293.393 223.621 293.37 224.424 293.342C225.236 293.314 226.094 293.281 227 293.244C227.914 293.197 228.848 293.155 229.8 293.118C230.761 293.071 231.713 293.029 232.656 292.992L232.628 293.986C231.405 294.051 230.173 294.117 228.932 294.182C227.69 294.257 226.51 294.322 225.39 294.378C224.279 294.434 223.285 294.481 222.408 294.518L222.268 293.412ZM229.548 290.388L230.542 289.912C230.971 290.407 231.405 290.939 231.844 291.508C232.282 292.068 232.688 292.619 233.062 293.16C233.435 293.701 233.734 294.187 233.958 294.616L232.908 295.19C232.684 294.751 232.385 294.257 232.012 293.706C231.648 293.146 231.246 292.577 230.808 291.998C230.378 291.41 229.958 290.873 229.548 290.388ZM225.446 282.646L226.608 282.968C226.3 283.724 225.936 284.457 225.516 285.166C225.096 285.875 224.648 286.538 224.172 287.154C223.696 287.761 223.206 288.293 222.702 288.75C222.636 288.675 222.543 288.591 222.422 288.498C222.3 288.405 222.174 288.311 222.044 288.218C221.913 288.125 221.801 288.05 221.708 287.994C222.221 287.574 222.706 287.084 223.164 286.524C223.63 285.955 224.06 285.339 224.452 284.676C224.844 284.013 225.175 283.337 225.446 282.646ZM230.444 282.646C230.677 283.103 230.952 283.575 231.27 284.06C231.596 284.545 231.942 285.021 232.306 285.488C232.67 285.955 233.034 286.393 233.398 286.804C233.762 287.215 234.107 287.565 234.434 287.854C234.34 287.929 234.238 288.017 234.126 288.12C234.014 288.223 233.906 288.33 233.804 288.442C233.701 288.554 233.612 288.657 233.538 288.75C233.22 288.414 232.875 288.022 232.502 287.574C232.138 287.126 231.769 286.65 231.396 286.146C231.032 285.642 230.677 285.129 230.332 284.606C229.986 284.074 229.683 283.561 229.422 283.066L230.444 282.646ZM237.626 287.532H245.648V288.554H237.626V287.532ZM245.284 287.532H246.376C246.376 287.532 246.376 287.565 246.376 287.63C246.376 287.695 246.376 287.77 246.376 287.854C246.376 287.929 246.371 287.989 246.362 288.036C246.306 289.128 246.25 290.057 246.194 290.822C246.147 291.578 246.086 292.208 246.012 292.712C245.946 293.216 245.872 293.613 245.788 293.902C245.704 294.191 245.596 294.401 245.466 294.532C245.326 294.709 245.172 294.831 245.004 294.896C244.836 294.971 244.63 295.017 244.388 295.036C244.154 295.055 243.832 295.059 243.422 295.05C243.02 295.05 242.6 295.036 242.162 295.008C242.152 294.849 242.115 294.672 242.05 294.476C241.994 294.28 241.914 294.107 241.812 293.958C242.269 293.995 242.694 294.019 243.086 294.028C243.478 294.047 243.758 294.056 243.926 294.056C244.066 294.056 244.182 294.042 244.276 294.014C244.369 293.986 244.448 293.939 244.514 293.874C244.654 293.743 244.766 293.463 244.85 293.034C244.943 292.595 245.022 291.951 245.088 291.102C245.162 290.243 245.228 289.123 245.284 287.742V287.532ZM239.544 282.52L240.664 282.842C240.318 283.626 239.912 284.377 239.446 285.096C238.988 285.815 238.484 286.473 237.934 287.07C237.392 287.667 236.828 288.19 236.24 288.638C236.174 288.563 236.086 288.475 235.974 288.372C235.862 288.269 235.745 288.167 235.624 288.064C235.512 287.961 235.414 287.877 235.33 287.812C235.927 287.42 236.492 286.949 237.024 286.398C237.556 285.847 238.036 285.245 238.466 284.592C238.895 283.929 239.254 283.239 239.544 282.52ZM244.43 282.492C244.654 282.959 244.929 283.439 245.256 283.934C245.582 284.419 245.937 284.891 246.32 285.348C246.702 285.796 247.094 286.216 247.496 286.608C247.906 286.991 248.303 287.317 248.686 287.588C248.592 287.663 248.485 287.756 248.364 287.868C248.252 287.971 248.144 288.078 248.042 288.19C247.948 288.302 247.869 288.409 247.804 288.512C247.412 288.195 247.015 287.826 246.614 287.406C246.212 286.977 245.816 286.515 245.424 286.02C245.041 285.525 244.677 285.012 244.332 284.48C243.996 283.948 243.692 283.421 243.422 282.898L244.43 282.492ZM240.58 287.826H241.714C241.639 288.591 241.518 289.338 241.35 290.066C241.182 290.794 240.925 291.48 240.58 292.124C240.234 292.768 239.754 293.351 239.138 293.874C238.531 294.397 237.738 294.835 236.758 295.19C236.711 295.097 236.65 294.989 236.576 294.868C236.501 294.756 236.417 294.644 236.324 294.532C236.24 294.429 236.156 294.341 236.072 294.266C236.986 293.967 237.724 293.589 238.284 293.132C238.853 292.665 239.292 292.147 239.6 291.578C239.908 291.009 240.132 290.407 240.272 289.772C240.412 289.137 240.514 288.489 240.58 287.826Z" fill="white"/>
<path d="M201.634 149.818V160H200.401V151.111H200.341L197.855 152.761V151.509L200.401 149.818H201.634ZM207.744 160.139C207.16 160.139 206.635 160.023 206.168 159.791C205.7 159.559 205.326 159.241 205.044 158.837C204.762 158.432 204.608 157.972 204.582 157.455H205.775C205.821 157.915 206.03 158.296 206.401 158.598C206.776 158.896 207.223 159.045 207.744 159.045C208.161 159.045 208.532 158.948 208.857 158.752C209.185 158.557 209.442 158.288 209.628 157.947C209.817 157.602 209.911 157.213 209.911 156.778C209.911 156.334 209.813 155.938 209.618 155.59C209.426 155.239 209.161 154.962 208.822 154.76C208.484 154.558 208.098 154.455 207.664 154.452C207.353 154.448 207.033 154.496 206.705 154.596C206.376 154.692 206.106 154.816 205.894 154.969L204.741 154.83L205.357 149.818H210.647V150.912H206.391L206.033 153.915H206.093C206.302 153.749 206.564 153.612 206.879 153.502C207.193 153.393 207.522 153.338 207.863 153.338C208.486 153.338 209.041 153.487 209.528 153.786C210.019 154.08 210.403 154.485 210.682 154.999C210.964 155.512 211.104 156.099 211.104 156.759C211.104 157.408 210.959 157.988 210.667 158.499C210.379 159.006 209.981 159.407 209.474 159.702C208.967 159.993 208.39 160.139 207.744 160.139ZM216.4 160.139C215.651 160.139 215.013 159.935 214.486 159.528C213.959 159.117 213.557 158.522 213.278 157.743C213 156.961 212.861 156.016 212.861 154.909C212.861 153.809 213 152.869 213.278 152.09C213.56 151.308 213.964 150.711 214.491 150.3C215.022 149.886 215.658 149.679 216.4 149.679C217.143 149.679 217.778 149.886 218.305 150.3C218.835 150.711 219.239 151.308 219.518 152.09C219.799 152.869 219.94 153.809 219.94 154.909C219.94 156.016 219.801 156.961 219.523 157.743C219.244 158.522 218.841 159.117 218.314 159.528C217.787 159.935 217.149 160.139 216.4 160.139ZM216.4 159.045C217.143 159.045 217.72 158.687 218.131 157.972C218.541 157.256 218.747 156.235 218.747 154.909C218.747 154.027 218.653 153.277 218.464 152.657C218.278 152.037 218.01 151.565 217.658 151.24C217.31 150.915 216.891 150.753 216.4 150.753C215.665 150.753 215.09 151.116 214.675 151.842C214.261 152.564 214.054 153.587 214.054 154.909C214.054 155.791 214.147 156.54 214.332 157.156C214.518 157.773 214.785 158.242 215.133 158.563C215.484 158.885 215.907 159.045 216.4 159.045ZM226.627 153.308L227.859 153.63C227.635 154.153 227.393 154.703 227.131 155.282C226.879 155.851 226.618 156.425 226.347 157.004C226.077 157.573 225.801 158.119 225.521 158.642C225.241 159.155 224.975 159.627 224.723 160.056L223.743 159.734C223.995 159.305 224.257 158.824 224.527 158.292C224.798 157.76 225.059 157.205 225.311 156.626C225.573 156.047 225.815 155.473 226.039 154.904C226.263 154.335 226.459 153.803 226.627 153.308ZM222.035 159.412C222.67 159.393 223.389 159.37 224.191 159.342C225.003 159.314 225.862 159.281 226.767 159.244C227.682 159.197 228.615 159.155 229.567 159.118C230.529 159.071 231.481 159.029 232.423 158.992L232.395 159.986C231.173 160.051 229.941 160.117 228.699 160.182C227.458 160.257 226.277 160.322 225.157 160.378C224.047 160.434 223.053 160.481 222.175 160.518L222.035 159.412ZM229.315 156.388L230.309 155.912C230.739 156.407 231.173 156.939 231.611 157.508C232.05 158.068 232.456 158.619 232.829 159.16C233.203 159.701 233.501 160.187 233.725 160.616L232.675 161.19C232.451 160.751 232.153 160.257 231.779 159.706C231.415 159.146 231.014 158.577 230.575 157.998C230.146 157.41 229.726 156.873 229.315 156.388ZM225.213 148.646L226.375 148.968C226.067 149.724 225.703 150.457 225.283 151.166C224.863 151.875 224.415 152.538 223.939 153.154C223.463 153.761 222.973 154.293 222.469 154.75C222.404 154.675 222.311 154.591 222.189 154.498C222.068 154.405 221.942 154.311 221.811 154.218C221.681 154.125 221.569 154.05 221.475 153.994C221.989 153.574 222.474 153.084 222.931 152.524C223.398 151.955 223.827 151.339 224.219 150.676C224.611 150.013 224.943 149.337 225.213 148.646ZM230.211 148.646C230.445 149.103 230.72 149.575 231.037 150.06C231.364 150.545 231.709 151.021 232.073 151.488C232.437 151.955 232.801 152.393 233.165 152.804C233.529 153.215 233.875 153.565 234.201 153.854C234.108 153.929 234.005 154.017 233.893 154.12C233.781 154.223 233.674 154.33 233.571 154.442C233.469 154.554 233.38 154.657 233.305 154.75C232.988 154.414 232.643 154.022 232.269 153.574C231.905 153.126 231.537 152.65 231.163 152.146C230.799 151.642 230.445 151.129 230.099 150.606C229.754 150.074 229.451 149.561 229.189 149.066L230.211 148.646ZM237.393 153.532H245.415V154.554H237.393V153.532ZM245.051 153.532H246.143C246.143 153.532 246.143 153.565 246.143 153.63C246.143 153.695 246.143 153.77 246.143 153.854C246.143 153.929 246.139 153.989 246.129 154.036C246.073 155.128 246.017 156.057 245.961 156.822C245.915 157.578 245.854 158.208 245.779 158.712C245.714 159.216 245.639 159.613 245.555 159.902C245.471 160.191 245.364 160.401 245.233 160.532C245.093 160.709 244.939 160.831 244.771 160.896C244.603 160.971 244.398 161.017 244.155 161.036C243.922 161.055 243.6 161.059 243.189 161.05C242.788 161.05 242.368 161.036 241.929 161.008C241.92 160.849 241.883 160.672 241.817 160.476C241.761 160.28 241.682 160.107 241.579 159.958C242.037 159.995 242.461 160.019 242.853 160.028C243.245 160.047 243.525 160.056 243.693 160.056C243.833 160.056 243.95 160.042 244.043 160.014C244.137 159.986 244.216 159.939 244.281 159.874C244.421 159.743 244.533 159.463 244.617 159.034C244.711 158.595 244.79 157.951 244.855 157.102C244.93 156.243 244.995 155.123 245.051 153.742V153.532ZM239.311 148.52L240.431 148.842C240.086 149.626 239.68 150.377 239.213 151.096C238.756 151.815 238.252 152.473 237.701 153.07C237.16 153.667 236.595 154.19 236.007 154.638C235.942 154.563 235.853 154.475 235.741 154.372C235.629 154.269 235.513 154.167 235.391 154.064C235.279 153.961 235.181 153.877 235.097 153.812C235.695 153.42 236.259 152.949 236.791 152.398C237.323 151.847 237.804 151.245 238.233 150.592C238.663 149.929 239.022 149.239 239.311 148.52ZM244.197 148.492C244.421 148.959 244.697 149.439 245.023 149.934C245.35 150.419 245.705 150.891 246.087 151.348C246.47 151.796 246.862 152.216 247.263 152.608C247.674 152.991 248.071 153.317 248.453 153.588C248.36 153.663 248.253 153.756 248.131 153.868C248.019 153.971 247.912 154.078 247.809 154.19C247.716 154.302 247.637 154.409 247.571 154.512C247.179 154.195 246.783 153.826 246.381 153.406C245.98 152.977 245.583 152.515 245.191 152.02C244.809 151.525 244.445 151.012 244.099 150.48C243.763 149.948 243.46 149.421 243.189 148.898L244.197 148.492ZM240.347 153.826H241.481C241.407 154.591 241.285 155.338 241.117 156.066C240.949 156.794 240.693 157.48 240.347 158.124C240.002 158.768 239.521 159.351 238.905 159.874C238.299 160.397 237.505 160.835 236.525 161.19C236.479 161.097 236.418 160.989 236.343 160.868C236.269 160.756 236.185 160.644 236.091 160.532C236.007 160.429 235.923 160.341 235.839 160.266C236.754 159.967 237.491 159.589 238.051 159.132C238.621 158.665 239.059 158.147 239.367 157.578C239.675 157.009 239.899 156.407 240.039 155.772C240.179 155.137 240.282 154.489 240.347 153.826Z" fill="white"/>
<path d="M70.536 567.654H75.506V568.536H70.536V567.654ZM70.83 569.754H75.184V570.622H70.83V569.754ZM75.492 569.432H79.44V570.384H75.492V569.432ZM72.552 566.254H73.476V570.37H72.552V566.254ZM71.852 572.162V573.758H74.162V572.162H71.852ZM70.97 571.364H75.072V574.528H70.97V571.364ZM71.152 575.088L71.978 574.878C72.258 575.606 72.538 576.544 72.608 577.104L71.712 577.356C71.656 576.768 71.418 575.816 71.152 575.088ZM75.548 571.868L76.346 571.644C76.752 572.75 77.116 574.206 77.2 575.06L76.36 575.354C76.262 574.458 75.926 572.988 75.548 571.868ZM74.022 574.794L74.988 575.046C74.68 575.928 74.344 576.936 74.05 577.594L73.224 577.356C73.518 576.67 73.854 575.55 74.022 574.794ZM70.228 577.902C71.586 577.72 73.672 577.398 75.702 577.09L75.758 577.958C73.882 578.28 71.908 578.588 70.48 578.826L70.228 577.902ZM77.606 566.282H78.572V577.888C78.572 578.476 78.446 578.77 78.096 578.938C77.732 579.106 77.158 579.134 76.276 579.134C76.248 578.882 76.094 578.42 75.954 578.14C76.584 578.168 77.172 578.168 77.354 578.154C77.536 578.14 77.606 578.084 77.606 577.888V566.282ZM66.714 569.278H70.578V570.258H66.714V569.278ZM68.366 566.24H69.304V579.106H68.366V566.24ZM68.352 569.866L68.954 570.062C68.59 572.246 67.806 575.032 66.938 576.446C66.84 576.194 66.602 575.802 66.434 575.592C67.246 574.332 68.044 571.854 68.352 569.866ZM69.234 571.014C69.486 571.392 70.494 573.156 70.718 573.562L70.186 574.346C69.934 573.646 69.122 571.952 68.828 571.406L69.234 571.014ZM83.15 566.24H84.158V570.244H83.15V566.24ZM83.15 573.926H84.158V579.12H83.15V573.926ZM82.128 572.568V573.66H85.222V572.568H82.128ZM82.128 570.692V571.756H85.222V570.692H82.128ZM81.176 569.838H86.202V574.5H81.176V569.838ZM80.728 567.724H86.622V568.676H80.728V567.724ZM89.408 571.238H90.444V579.106H89.408V571.238ZM87.406 570.874H92.502V571.854H87.406V570.874ZM86.72 573.814H93.272V574.794H86.72V573.814ZM80.574 575.69H86.748V576.642H80.574V575.69ZM89.94 567.346C89.324 568.704 88.134 570.412 86.818 571.504C86.692 571.238 86.454 570.86 86.244 570.636C87.56 569.6 88.82 567.78 89.408 566.31H90.388C91.186 567.822 92.474 569.474 93.664 570.37C93.468 570.622 93.216 571.014 93.062 571.322C91.886 570.3 90.64 568.69 89.94 567.346ZM94.896 569.796H99.012V570.846H94.896V569.796ZM101.91 566.506H102.988V576.908C102.988 577.636 103.114 577.776 103.716 577.776C104.024 577.776 105.424 577.776 105.788 577.776C106.432 577.776 106.53 577.174 106.628 574.85C106.894 575.06 107.342 575.27 107.636 575.34C107.51 577.902 107.23 578.812 105.858 578.812C105.564 578.812 103.884 578.812 103.604 578.812C102.302 578.812 101.91 578.392 101.91 576.88V566.506ZM98.494 566.506H99.572V579.008H98.494V566.506ZM106.474 568.662L107.244 569.572C105.956 570.566 104.164 571.63 102.582 572.498C102.498 572.26 102.288 571.896 102.134 571.672C103.688 570.818 105.424 569.628 106.474 568.662ZM94.462 576.292C95.596 575.914 97.346 575.242 99.012 574.584L99.208 575.536C97.738 576.18 96.156 576.838 94.952 577.342L94.462 576.292ZM112.97 572.47H116.806V573.338H112.97V572.47ZM112.97 574.906H116.848V575.774H112.97V574.906ZM110.086 577.412H119.97V578.392H110.086V577.412ZM109.442 569.936H120.544V579.134H119.48V570.916H110.464V579.134H109.442V569.936ZM112.48 570.552H113.432V577.86H112.48V570.552ZM116.4 570.552H117.366V577.818H116.4V570.552ZM114.3 567.64L115.518 567.92C115.224 568.858 114.93 569.936 114.65 570.636L113.698 570.37C113.922 569.614 114.202 568.452 114.3 567.64ZM108.812 567.178H121.216V568.186H108.812V567.178Z" fill="white"/>
</svg>
