<svg width="251" height="581" viewBox="0 0 251 581" fill="none" xmlns="http://www.w3.org/2000/svg">
<path d="M1 20H189" stroke="white" stroke-dasharray="2 2"/>
<path d="M185 9.10989C179.946 20.5238 169.012 48.7582 165.704 70.3846C162.396 92.011 164.326 143.073 165.704 165.901C165.704 198.341 165.704 266.464 165.704 279.44C165.704 295.659 161.569 342.516 165.704 362.341C169.839 382.165 165.704 427.22 165.704 454.253C165.704 475.879 178.568 543.762 185 575M13.4045 1C17.9987 11.8132 28.979 44.433 27.8764 55.967C26.4981 70.3846 27.8764 128.055 27.8764 156.89C27.8764 185.725 38.8223 233.107 34.7678 259.615C30.633 286.648 34.7678 361.44 34.7678 397.484C34.7678 433.527 34.0786 500.209 21.6742 525.44C11.7506 545.624 5.59425 564.187 0.999996 575" stroke="white"/>
<path d="M197.054 27V26.1051L200.415 22.4261C200.809 21.9953 201.134 21.6207 201.389 21.3026C201.644 20.9811 201.833 20.6795 201.956 20.3977C202.082 20.1127 202.145 19.8144 202.145 19.5028C202.145 19.1449 202.059 18.835 201.886 18.5732C201.717 18.3113 201.485 18.1091 201.19 17.9666C200.895 17.8241 200.564 17.7528 200.196 17.7528C199.805 17.7528 199.464 17.834 199.172 17.9964C198.884 18.1555 198.66 18.3793 198.501 18.6676C198.345 18.956 198.267 19.294 198.267 19.6818H197.094C197.094 19.0852 197.231 18.5616 197.506 18.1108C197.781 17.66 198.156 17.3087 198.63 17.0568C199.107 16.8049 199.643 16.679 200.236 16.679C200.832 16.679 201.361 16.8049 201.822 17.0568C202.282 17.3087 202.644 17.6484 202.906 18.076C203.167 18.5036 203.298 18.9792 203.298 19.5028C203.298 19.8774 203.23 20.2436 203.094 20.6016C202.962 20.9562 202.73 21.3523 202.398 21.7898C202.07 22.224 201.615 22.7543 201.031 23.3807L198.744 25.8267V25.9062H203.477V27H197.054ZM208.852 27.1392C208.103 27.1392 207.464 26.9354 206.938 26.5277C206.411 26.1167 206.008 25.5218 205.729 24.7429C205.451 23.9607 205.312 23.0161 205.312 21.9091C205.312 20.8087 205.451 19.8691 205.729 19.0902C206.011 18.308 206.415 17.7114 206.942 17.3004C207.473 16.8861 208.109 16.679 208.852 16.679C209.594 16.679 210.229 16.8861 210.756 17.3004C211.286 17.7114 211.69 18.308 211.969 19.0902C212.25 19.8691 212.391 20.8087 212.391 21.9091C212.391 23.0161 212.252 23.9607 211.974 24.7429C211.695 25.5218 211.293 26.1167 210.766 26.5277C210.239 26.9354 209.601 27.1392 208.852 27.1392ZM208.852 26.0455C209.594 26.0455 210.171 25.6875 210.582 24.9716C210.993 24.2557 211.198 23.2348 211.198 21.9091C211.198 21.0275 211.104 20.2768 210.915 19.657C210.729 19.0372 210.461 18.5649 210.109 18.2401C209.761 17.9152 209.342 17.7528 208.852 17.7528C208.116 17.7528 207.541 18.1158 207.126 18.8416C206.712 19.5642 206.505 20.5866 206.505 21.9091C206.505 22.7907 206.598 23.5398 206.783 24.1562C206.969 24.7727 207.236 25.2417 207.584 25.5632C207.935 25.8847 208.358 26.0455 208.852 26.0455ZM217.602 27.1392C216.853 27.1392 216.214 26.9354 215.688 26.5277C215.161 26.1167 214.758 25.5218 214.479 24.7429C214.201 23.9607 214.062 23.0161 214.062 21.9091C214.062 20.8087 214.201 19.8691 214.479 19.0902C214.761 18.308 215.165 17.7114 215.692 17.3004C216.223 16.8861 216.859 16.679 217.602 16.679C218.344 16.679 218.979 16.8861 219.506 17.3004C220.036 17.7114 220.44 18.308 220.719 19.0902C221 19.8691 221.141 20.8087 221.141 21.9091C221.141 23.0161 221.002 23.9607 220.724 24.7429C220.445 25.5218 220.043 26.1167 219.516 26.5277C218.989 26.9354 218.351 27.1392 217.602 27.1392ZM217.602 26.0455C218.344 26.0455 218.921 25.6875 219.332 24.9716C219.743 24.2557 219.948 23.2348 219.948 21.9091C219.948 21.0275 219.854 20.2768 219.665 19.657C219.479 19.0372 219.211 18.5649 218.859 18.2401C218.511 17.9152 218.092 17.7528 217.602 17.7528C216.866 17.7528 216.291 18.1158 215.876 18.8416C215.462 19.5642 215.255 20.5866 215.255 21.9091C215.255 22.7907 215.348 23.5398 215.533 24.1562C215.719 24.7727 215.986 25.2417 216.334 25.5632C216.685 25.8847 217.108 26.0455 217.602 26.0455ZM227.829 20.308L229.061 20.63C228.837 21.1527 228.594 21.7033 228.333 22.282C228.081 22.8513 227.819 23.4253 227.549 24.004C227.278 24.5733 227.003 25.1193 226.723 25.642C226.443 26.1553 226.177 26.6267 225.925 27.056L224.945 26.734C225.197 26.3047 225.458 25.824 225.729 25.292C225.999 24.76 226.261 24.2047 226.513 23.626C226.774 23.0473 227.017 22.4733 227.241 21.904C227.465 21.3347 227.661 20.8027 227.829 20.308ZM223.237 26.412C223.871 26.3933 224.59 26.37 225.393 26.342C226.205 26.314 227.063 26.2813 227.969 26.244C228.883 26.1973 229.817 26.1553 230.769 26.118C231.73 26.0713 232.682 26.0293 233.625 25.992L233.597 26.986C232.374 27.0513 231.142 27.1167 229.901 27.182C228.659 27.2567 227.479 27.322 226.359 27.378C225.248 27.434 224.254 27.4807 223.377 27.518L223.237 26.412ZM230.517 23.388L231.511 22.912C231.94 23.4067 232.374 23.9387 232.813 24.508C233.251 25.068 233.657 25.6187 234.031 26.16C234.404 26.7013 234.703 27.1867 234.927 27.616L233.877 28.19C233.653 27.7513 233.354 27.2567 232.981 26.706C232.617 26.146 232.215 25.5767 231.777 24.998C231.347 24.41 230.927 23.8733 230.517 23.388ZM226.415 15.646L227.577 15.968C227.269 16.724 226.905 17.4567 226.485 18.166C226.065 18.8753 225.617 19.538 225.141 20.154C224.665 20.7607 224.175 21.2927 223.671 21.75C223.605 21.6753 223.512 21.5913 223.391 21.498C223.269 21.4047 223.143 21.3113 223.013 21.218C222.882 21.1247 222.77 21.05 222.677 20.994C223.19 20.574 223.675 20.084 224.133 19.524C224.599 18.9547 225.029 18.3387 225.421 17.676C225.813 17.0133 226.144 16.3367 226.415 15.646ZM231.413 15.646C231.646 16.1033 231.921 16.5747 232.239 17.06C232.565 17.5453 232.911 18.0213 233.275 18.488C233.639 18.9547 234.003 19.3933 234.367 19.804C234.731 20.2147 235.076 20.5647 235.403 20.854C235.309 20.9287 235.207 21.0173 235.095 21.12C234.983 21.2227 234.875 21.33 234.773 21.442C234.67 21.554 234.581 21.6567 234.507 21.75C234.189 21.414 233.844 21.022 233.471 20.574C233.107 20.126 232.738 19.65 232.365 19.146C232.001 18.642 231.646 18.1287 231.301 17.606C230.955 17.074 230.652 16.5607 230.391 16.066L231.413 15.646ZM238.595 20.532H246.617V21.554H238.595V20.532ZM246.253 20.532H247.345C247.345 20.532 247.345 20.5647 247.345 20.63C247.345 20.6953 247.345 20.77 247.345 20.854C247.345 20.9287 247.34 20.9893 247.331 21.036C247.275 22.128 247.219 23.0567 247.163 23.822C247.116 24.578 247.055 25.208 246.981 25.712C246.915 26.216 246.841 26.6127 246.757 26.902C246.673 27.1913 246.565 27.4013 246.435 27.532C246.295 27.7093 246.141 27.8307 245.973 27.896C245.805 27.9707 245.599 28.0173 245.357 28.036C245.123 28.0547 244.801 28.0593 244.391 28.05C243.989 28.05 243.569 28.036 243.131 28.008C243.121 27.8493 243.084 27.672 243.019 27.476C242.963 27.28 242.883 27.1073 242.781 26.958C243.238 26.9953 243.663 27.0187 244.055 27.028C244.447 27.0467 244.727 27.056 244.895 27.056C245.035 27.056 245.151 27.042 245.245 27.014C245.338 26.986 245.417 26.9393 245.483 26.874C245.623 26.7433 245.735 26.4633 245.819 26.034C245.912 25.5953 245.991 24.9513 246.057 24.102C246.131 23.2433 246.197 22.1233 246.253 20.742V20.532ZM240.513 15.52L241.633 15.842C241.287 16.626 240.881 17.3773 240.415 18.096C239.957 18.8147 239.453 19.4727 238.903 20.07C238.361 20.6673 237.797 21.19 237.209 21.638C237.143 21.5633 237.055 21.4747 236.943 21.372C236.831 21.2693 236.714 21.1667 236.593 21.064C236.481 20.9613 236.383 20.8773 236.299 20.812C236.896 20.42 237.461 19.9487 237.993 19.398C238.525 18.8473 239.005 18.2453 239.435 17.592C239.864 16.9293 240.223 16.2387 240.513 15.52ZM245.399 15.492C245.623 15.9587 245.898 16.4393 246.225 16.934C246.551 17.4193 246.906 17.8907 247.289 18.348C247.671 18.796 248.063 19.216 248.465 19.608C248.875 19.9907 249.272 20.3173 249.655 20.588C249.561 20.6627 249.454 20.756 249.333 20.868C249.221 20.9707 249.113 21.078 249.011 21.19C248.917 21.302 248.838 21.4093 248.773 21.512C248.381 21.1947 247.984 20.826 247.583 20.406C247.181 19.9767 246.785 19.5147 246.393 19.02C246.01 18.5253 245.646 18.012 245.301 17.48C244.965 16.948 244.661 16.4207 244.391 15.898L245.399 15.492ZM241.549 20.826H242.683C242.608 21.5913 242.487 22.338 242.319 23.066C242.151 23.794 241.894 24.48 241.549 25.124C241.203 25.768 240.723 26.3513 240.107 26.874C239.5 27.3967 238.707 27.8353 237.727 28.19C237.68 28.0967 237.619 27.9893 237.545 27.868C237.47 27.756 237.386 27.644 237.293 27.532C237.209 27.4293 237.125 27.3407 237.041 27.266C237.955 26.9673 238.693 26.5893 239.253 26.132C239.822 25.6653 240.261 25.1473 240.569 24.578C240.877 24.0087 241.101 23.4067 241.241 22.772C241.381 22.1373 241.483 21.4887 241.549 20.826Z" fill="white"/>
<path d="M1 551.5H189" stroke="white" stroke-dasharray="2 2"/>
<path d="M202.375 557.139C201.626 557.139 200.988 556.935 200.461 556.528C199.934 556.117 199.531 555.522 199.253 554.743C198.974 553.961 198.835 553.016 198.835 551.909C198.835 550.809 198.974 549.869 199.253 549.09C199.535 548.308 199.939 547.711 200.466 547.3C200.996 546.886 201.633 546.679 202.375 546.679C203.117 546.679 203.752 546.886 204.279 547.3C204.809 547.711 205.214 548.308 205.492 549.09C205.774 549.869 205.915 550.809 205.915 551.909C205.915 553.016 205.776 553.961 205.497 554.743C205.219 555.522 204.816 556.117 204.289 556.528C203.762 556.935 203.124 557.139 202.375 557.139ZM202.375 556.045C203.117 556.045 203.694 555.687 204.105 554.972C204.516 554.256 204.722 553.235 204.722 551.909C204.722 551.027 204.627 550.277 204.438 549.657C204.253 549.037 203.984 548.565 203.633 548.24C203.285 547.915 202.866 547.753 202.375 547.753C201.639 547.753 201.064 548.116 200.65 548.842C200.236 549.564 200.028 550.587 200.028 551.909C200.028 552.791 200.121 553.54 200.307 554.156C200.492 554.773 200.759 555.242 201.107 555.563C201.459 555.885 201.881 556.045 202.375 556.045ZM212.602 550.308L213.834 550.63C213.61 551.153 213.367 551.703 213.106 552.282C212.854 552.851 212.593 553.425 212.322 554.004C212.051 554.573 211.776 555.119 211.496 555.642C211.216 556.155 210.95 556.627 210.698 557.056L209.718 556.734C209.97 556.305 210.231 555.824 210.502 555.292C210.773 554.76 211.034 554.205 211.286 553.626C211.547 553.047 211.79 552.473 212.014 551.904C212.238 551.335 212.434 550.803 212.602 550.308ZM208.01 556.412C208.645 556.393 209.363 556.37 210.166 556.342C210.978 556.314 211.837 556.281 212.742 556.244C213.657 556.197 214.59 556.155 215.542 556.118C216.503 556.071 217.455 556.029 218.398 555.992L218.37 556.986C217.147 557.051 215.915 557.117 214.674 557.182C213.433 557.257 212.252 557.322 211.132 557.378C210.021 557.434 209.027 557.481 208.15 557.518L208.01 556.412ZM215.29 553.388L216.284 552.912C216.713 553.407 217.147 553.939 217.586 554.508C218.025 555.068 218.431 555.619 218.804 556.16C219.177 556.701 219.476 557.187 219.7 557.616L218.65 558.19C218.426 557.751 218.127 557.257 217.754 556.706C217.39 556.146 216.989 555.577 216.55 554.998C216.121 554.41 215.701 553.873 215.29 553.388ZM211.188 545.646L212.35 545.968C212.042 546.724 211.678 547.457 211.258 548.166C210.838 548.875 210.39 549.538 209.914 550.154C209.438 550.761 208.948 551.293 208.444 551.75C208.379 551.675 208.285 551.591 208.164 551.498C208.043 551.405 207.917 551.311 207.786 551.218C207.655 551.125 207.543 551.05 207.45 550.994C207.963 550.574 208.449 550.084 208.906 549.524C209.373 548.955 209.802 548.339 210.194 547.676C210.586 547.013 210.917 546.337 211.188 545.646ZM216.186 545.646C216.419 546.103 216.695 546.575 217.012 547.06C217.339 547.545 217.684 548.021 218.048 548.488C218.412 548.955 218.776 549.393 219.14 549.804C219.504 550.215 219.849 550.565 220.176 550.854C220.083 550.929 219.98 551.017 219.868 551.12C219.756 551.223 219.649 551.33 219.546 551.442C219.443 551.554 219.355 551.657 219.28 551.75C218.963 551.414 218.617 551.022 218.244 550.574C217.88 550.126 217.511 549.65 217.138 549.146C216.774 548.642 216.419 548.129 216.074 547.606C215.729 547.074 215.425 546.561 215.164 546.066L216.186 545.646ZM223.368 550.532H231.39V551.554H223.368V550.532ZM231.026 550.532H232.118C232.118 550.532 232.118 550.565 232.118 550.63C232.118 550.695 232.118 550.77 232.118 550.854C232.118 550.929 232.113 550.989 232.104 551.036C232.048 552.128 231.992 553.057 231.936 553.822C231.889 554.578 231.829 555.208 231.754 555.712C231.689 556.216 231.614 556.613 231.53 556.902C231.446 557.191 231.339 557.401 231.208 557.532C231.068 557.709 230.914 557.831 230.746 557.896C230.578 557.971 230.373 558.017 230.13 558.036C229.897 558.055 229.575 558.059 229.164 558.05C228.763 558.05 228.343 558.036 227.904 558.008C227.895 557.849 227.857 557.672 227.792 557.476C227.736 557.28 227.657 557.107 227.554 556.958C228.011 556.995 228.436 557.019 228.828 557.028C229.22 557.047 229.5 557.056 229.668 557.056C229.808 557.056 229.925 557.042 230.018 557.014C230.111 556.986 230.191 556.939 230.256 556.874C230.396 556.743 230.508 556.463 230.592 556.034C230.685 555.595 230.765 554.951 230.83 554.102C230.905 553.243 230.97 552.123 231.026 550.742V550.532ZM225.286 545.52L226.406 545.842C226.061 546.626 225.655 547.377 225.188 548.096C224.731 548.815 224.227 549.473 223.676 550.07C223.135 550.667 222.57 551.19 221.982 551.638C221.917 551.563 221.828 551.475 221.716 551.372C221.604 551.269 221.487 551.167 221.366 551.064C221.254 550.961 221.156 550.877 221.072 550.812C221.669 550.42 222.234 549.949 222.766 549.398C223.298 548.847 223.779 548.245 224.208 547.592C224.637 546.929 224.997 546.239 225.286 545.52ZM230.172 545.492C230.396 545.959 230.671 546.439 230.998 546.934C231.325 547.419 231.679 547.891 232.062 548.348C232.445 548.796 232.837 549.216 233.238 549.608C233.649 549.991 234.045 550.317 234.428 550.588C234.335 550.663 234.227 550.756 234.106 550.868C233.994 550.971 233.887 551.078 233.784 551.19C233.691 551.302 233.611 551.409 233.546 551.512C233.154 551.195 232.757 550.826 232.356 550.406C231.955 549.977 231.558 549.515 231.166 549.02C230.783 548.525 230.419 548.012 230.074 547.48C229.738 546.948 229.435 546.421 229.164 545.898L230.172 545.492ZM226.322 550.826H227.456C227.381 551.591 227.26 552.338 227.092 553.066C226.924 553.794 226.667 554.48 226.322 555.124C225.977 555.768 225.496 556.351 224.88 556.874C224.273 557.397 223.48 557.835 222.5 558.19C222.453 558.097 222.393 557.989 222.318 557.868C222.243 557.756 222.159 557.644 222.066 557.532C221.982 557.429 221.898 557.341 221.814 557.266C222.729 556.967 223.466 556.589 224.026 556.132C224.595 555.665 225.034 555.147 225.342 554.578C225.65 554.009 225.874 553.407 226.014 552.772C226.154 552.137 226.257 551.489 226.322 550.826Z" fill="white"/>
<path d="M71.536 567.654H76.506V568.536H71.536V567.654ZM71.83 569.754H76.184V570.622H71.83V569.754ZM76.492 569.432H80.44V570.384H76.492V569.432ZM73.552 566.254H74.476V570.37H73.552V566.254ZM72.852 572.162V573.758H75.162V572.162H72.852ZM71.97 571.364H76.072V574.528H71.97V571.364ZM72.152 575.088L72.978 574.878C73.258 575.606 73.538 576.544 73.608 577.104L72.712 577.356C72.656 576.768 72.418 575.816 72.152 575.088ZM76.548 571.868L77.346 571.644C77.752 572.75 78.116 574.206 78.2 575.06L77.36 575.354C77.262 574.458 76.926 572.988 76.548 571.868ZM75.022 574.794L75.988 575.046C75.68 575.928 75.344 576.936 75.05 577.594L74.224 577.356C74.518 576.67 74.854 575.55 75.022 574.794ZM71.228 577.902C72.586 577.72 74.672 577.398 76.702 577.09L76.758 577.958C74.882 578.28 72.908 578.588 71.48 578.826L71.228 577.902ZM78.606 566.282H79.572V577.888C79.572 578.476 79.446 578.77 79.096 578.938C78.732 579.106 78.158 579.134 77.276 579.134C77.248 578.882 77.094 578.42 76.954 578.14C77.584 578.168 78.172 578.168 78.354 578.154C78.536 578.14 78.606 578.084 78.606 577.888V566.282ZM67.714 569.278H71.578V570.258H67.714V569.278ZM69.366 566.24H70.304V579.106H69.366V566.24ZM69.352 569.866L69.954 570.062C69.59 572.246 68.806 575.032 67.938 576.446C67.84 576.194 67.602 575.802 67.434 575.592C68.246 574.332 69.044 571.854 69.352 569.866ZM70.234 571.014C70.486 571.392 71.494 573.156 71.718 573.562L71.186 574.346C70.934 573.646 70.122 571.952 69.828 571.406L70.234 571.014ZM84.15 566.24H85.158V570.244H84.15V566.24ZM84.15 573.926H85.158V579.12H84.15V573.926ZM83.128 572.568V573.66H86.222V572.568H83.128ZM83.128 570.692V571.756H86.222V570.692H83.128ZM82.176 569.838H87.202V574.5H82.176V569.838ZM81.728 567.724H87.622V568.676H81.728V567.724ZM90.408 571.238H91.444V579.106H90.408V571.238ZM88.406 570.874H93.502V571.854H88.406V570.874ZM87.72 573.814H94.272V574.794H87.72V573.814ZM81.574 575.69H87.748V576.642H81.574V575.69ZM90.94 567.346C90.324 568.704 89.134 570.412 87.818 571.504C87.692 571.238 87.454 570.86 87.244 570.636C88.56 569.6 89.82 567.78 90.408 566.31H91.388C92.186 567.822 93.474 569.474 94.664 570.37C94.468 570.622 94.216 571.014 94.062 571.322C92.886 570.3 91.64 568.69 90.94 567.346ZM95.84 567.654H108.174V568.648H95.84V567.654ZM98.724 573.268H105.346V574.122H98.724V573.268ZM98.43 575.55H105.598V576.432H98.43V575.55ZM101.44 573.674H102.448V578.854H101.44V573.674ZM96.596 570.118H106.718V571.098H97.646V579.106H96.596V570.118ZM106.354 570.118H107.432V577.902C107.432 578.518 107.278 578.812 106.816 578.966C106.368 579.12 105.57 579.134 104.422 579.134C104.366 578.854 104.198 578.448 104.044 578.182C104.926 578.224 105.794 578.224 106.046 578.21C106.298 578.196 106.354 578.126 106.354 577.902V570.118ZM99.424 571.56L100.264 571.294C100.642 571.798 101.006 572.484 101.16 572.946L100.278 573.268C100.138 572.792 99.774 572.078 99.424 571.56ZM103.708 571.28L104.604 571.546C104.24 572.274 103.806 573.058 103.442 573.59L102.686 573.338C103.036 572.764 103.47 571.882 103.708 571.28ZM101.412 566.254H102.574V570.776H101.412V566.254ZM113.97 572.47H117.806V573.338H113.97V572.47ZM113.97 574.906H117.848V575.774H113.97V574.906ZM111.086 577.412H120.97V578.392H111.086V577.412ZM110.442 569.936H121.544V579.134H120.48V570.916H111.464V579.134H110.442V569.936ZM113.48 570.552H114.432V577.86H113.48V570.552ZM117.4 570.552H118.366V577.818H117.4V570.552ZM115.3 567.64L116.518 567.92C116.224 568.858 115.93 569.936 115.65 570.636L114.698 570.37C114.922 569.614 115.202 568.452 115.3 567.64ZM109.812 567.178H122.216V568.186H109.812V567.178Z" fill="white"/>
<path d="M1 419H189" stroke="white" stroke-dasharray="2 2"/>
<path d="M1 287H189" stroke="white" stroke-dasharray="2 2"/>
<path d="M1 155H189" stroke="white" stroke-dasharray="2 2"/>
<path d="M202.236 427.139C201.652 427.139 201.127 427.023 200.66 426.791C200.192 426.559 199.818 426.241 199.536 425.837C199.254 425.432 199.1 424.972 199.074 424.455H200.267C200.313 424.915 200.522 425.296 200.893 425.598C201.268 425.896 201.715 426.045 202.236 426.045C202.653 426.045 203.025 425.948 203.349 425.752C203.678 425.557 203.934 425.288 204.12 424.947C204.309 424.602 204.403 424.213 204.403 423.778C204.403 423.334 204.306 422.938 204.11 422.59C203.918 422.239 203.653 421.962 203.315 421.76C202.977 421.558 202.59 421.455 202.156 421.452C201.845 421.448 201.525 421.496 201.197 421.596C200.869 421.692 200.598 421.816 200.386 421.969L199.233 421.83L199.849 416.818H205.139V417.912H200.884L200.526 420.915H200.585C200.794 420.749 201.056 420.612 201.371 420.502C201.686 420.393 202.014 420.338 202.355 420.338C202.978 420.338 203.533 420.487 204.021 420.786C204.511 421.08 204.896 421.485 205.174 421.999C205.456 422.512 205.597 423.099 205.597 423.759C205.597 424.408 205.451 424.988 205.159 425.499C204.871 426.006 204.473 426.407 203.966 426.702C203.459 426.993 202.882 427.139 202.236 427.139ZM210.893 427.139C210.144 427.139 209.506 426.935 208.979 426.528C208.452 426.117 208.049 425.522 207.77 424.743C207.492 423.961 207.353 423.016 207.353 421.909C207.353 420.809 207.492 419.869 207.77 419.09C208.052 418.308 208.456 417.711 208.983 417.3C209.514 416.886 210.15 416.679 210.893 416.679C211.635 416.679 212.27 416.886 212.797 417.3C213.327 417.711 213.731 418.308 214.01 419.09C214.291 419.869 214.432 420.809 214.432 421.909C214.432 423.016 214.293 423.961 214.015 424.743C213.736 425.522 213.334 426.117 212.807 426.528C212.28 426.935 211.642 427.139 210.893 427.139ZM210.893 426.045C211.635 426.045 212.212 425.687 212.623 424.972C213.034 424.256 213.239 423.235 213.239 421.909C213.239 421.027 213.145 420.277 212.956 419.657C212.77 419.037 212.502 418.565 212.15 418.24C211.802 417.915 211.383 417.753 210.893 417.753C210.157 417.753 209.582 418.116 209.167 418.842C208.753 419.564 208.546 420.587 208.546 421.909C208.546 422.791 208.639 423.54 208.824 424.156C209.01 424.773 209.277 425.242 209.625 425.563C209.976 425.885 210.399 426.045 210.893 426.045ZM221.12 420.308L222.352 420.63C222.128 421.153 221.885 421.703 221.624 422.282C221.372 422.851 221.11 423.425 220.84 424.004C220.569 424.573 220.294 425.119 220.014 425.642C219.734 426.155 219.468 426.627 219.216 427.056L218.236 426.734C218.488 426.305 218.749 425.824 219.02 425.292C219.29 424.76 219.552 424.205 219.804 423.626C220.065 423.047 220.308 422.473 220.532 421.904C220.756 421.335 220.952 420.803 221.12 420.308ZM216.528 426.412C217.162 426.393 217.881 426.37 218.684 426.342C219.496 426.314 220.354 426.281 221.26 426.244C222.174 426.197 223.108 426.155 224.06 426.118C225.021 426.071 225.973 426.029 226.916 425.992L226.888 426.986C225.665 427.051 224.433 427.117 223.192 427.182C221.95 427.257 220.77 427.322 219.65 427.378C218.539 427.434 217.545 427.481 216.668 427.518L216.528 426.412ZM223.808 423.388L224.802 422.912C225.231 423.407 225.665 423.939 226.104 424.508C226.542 425.068 226.948 425.619 227.322 426.16C227.695 426.701 227.994 427.187 228.218 427.616L227.168 428.19C226.944 427.751 226.645 427.257 226.272 426.706C225.908 426.146 225.506 425.577 225.068 424.998C224.638 424.41 224.218 423.873 223.808 423.388ZM219.706 415.646L220.868 415.968C220.56 416.724 220.196 417.457 219.776 418.166C219.356 418.875 218.908 419.538 218.432 420.154C217.956 420.761 217.466 421.293 216.962 421.75C216.896 421.675 216.803 421.591 216.682 421.498C216.56 421.405 216.434 421.311 216.304 421.218C216.173 421.125 216.061 421.05 215.968 420.994C216.481 420.574 216.966 420.084 217.424 419.524C217.89 418.955 218.32 418.339 218.712 417.676C219.104 417.013 219.435 416.337 219.706 415.646ZM224.704 415.646C224.937 416.103 225.212 416.575 225.53 417.06C225.856 417.545 226.202 418.021 226.566 418.488C226.93 418.955 227.294 419.393 227.658 419.804C228.022 420.215 228.367 420.565 228.694 420.854C228.6 420.929 228.498 421.017 228.386 421.12C228.274 421.223 228.166 421.33 228.064 421.442C227.961 421.554 227.872 421.657 227.798 421.75C227.48 421.414 227.135 421.022 226.762 420.574C226.398 420.126 226.029 419.65 225.656 419.146C225.292 418.642 224.937 418.129 224.592 417.606C224.246 417.074 223.943 416.561 223.682 416.066L224.704 415.646ZM231.886 420.532H239.908V421.554H231.886V420.532ZM239.544 420.532H240.636C240.636 420.532 240.636 420.565 240.636 420.63C240.636 420.695 240.636 420.77 240.636 420.854C240.636 420.929 240.631 420.989 240.622 421.036C240.566 422.128 240.51 423.057 240.454 423.822C240.407 424.578 240.346 425.208 240.272 425.712C240.206 426.216 240.132 426.613 240.048 426.902C239.964 427.191 239.856 427.401 239.726 427.532C239.586 427.709 239.432 427.831 239.264 427.896C239.096 427.971 238.89 428.017 238.648 428.036C238.414 428.055 238.092 428.059 237.682 428.05C237.28 428.05 236.86 428.036 236.422 428.008C236.412 427.849 236.375 427.672 236.31 427.476C236.254 427.28 236.174 427.107 236.072 426.958C236.529 426.995 236.954 427.019 237.346 427.028C237.738 427.047 238.018 427.056 238.186 427.056C238.326 427.056 238.442 427.042 238.536 427.014C238.629 426.986 238.708 426.939 238.774 426.874C238.914 426.743 239.026 426.463 239.11 426.034C239.203 425.595 239.282 424.951 239.348 424.102C239.422 423.243 239.488 422.123 239.544 420.742V420.532ZM233.804 415.52L234.924 415.842C234.578 416.626 234.172 417.377 233.706 418.096C233.248 418.815 232.744 419.473 232.194 420.07C231.652 420.667 231.088 421.19 230.5 421.638C230.434 421.563 230.346 421.475 230.234 421.372C230.122 421.269 230.005 421.167 229.884 421.064C229.772 420.961 229.674 420.877 229.59 420.812C230.187 420.42 230.752 419.949 231.284 419.398C231.816 418.847 232.296 418.245 232.726 417.592C233.155 416.929 233.514 416.239 233.804 415.52ZM238.69 415.492C238.914 415.959 239.189 416.439 239.516 416.934C239.842 417.419 240.197 417.891 240.58 418.348C240.962 418.796 241.354 419.216 241.756 419.608C242.166 419.991 242.563 420.317 242.946 420.588C242.852 420.663 242.745 420.756 242.624 420.868C242.512 420.971 242.404 421.078 242.302 421.19C242.208 421.302 242.129 421.409 242.064 421.512C241.672 421.195 241.275 420.826 240.874 420.406C240.472 419.977 240.076 419.515 239.684 419.02C239.301 418.525 238.937 418.012 238.592 417.48C238.256 416.948 237.952 416.421 237.682 415.898L238.69 415.492ZM234.84 420.826H235.974C235.899 421.591 235.778 422.338 235.61 423.066C235.442 423.794 235.185 424.48 234.84 425.124C234.494 425.768 234.014 426.351 233.398 426.874C232.791 427.397 231.998 427.835 231.018 428.19C230.971 428.097 230.91 427.989 230.836 427.868C230.761 427.756 230.677 427.644 230.584 427.532C230.5 427.429 230.416 427.341 230.332 427.266C231.246 426.967 231.984 426.589 232.544 426.132C233.113 425.665 233.552 425.147 233.86 424.578C234.168 424.009 234.392 423.407 234.532 422.772C234.672 422.137 234.774 421.489 234.84 420.826Z" fill="white"/>
<path d="M202.634 283.818V294H201.401V285.111H201.341L198.855 286.761V285.509L201.401 283.818H202.634ZM208.883 294.139C208.134 294.139 207.496 293.935 206.969 293.528C206.442 293.117 206.039 292.522 205.761 291.743C205.482 290.961 205.343 290.016 205.343 288.909C205.343 287.809 205.482 286.869 205.761 286.09C206.042 285.308 206.447 284.711 206.974 284.3C207.504 283.886 208.14 283.679 208.883 283.679C209.625 283.679 210.26 283.886 210.787 284.3C211.317 284.711 211.722 285.308 212 286.09C212.282 286.869 212.423 287.809 212.423 288.909C212.423 290.016 212.283 290.961 212.005 291.743C211.727 292.522 211.324 293.117 210.797 293.528C210.27 293.935 209.632 294.139 208.883 294.139ZM208.883 293.045C209.625 293.045 210.202 292.687 210.613 291.972C211.024 291.256 211.229 290.235 211.229 288.909C211.229 288.027 211.135 287.277 210.946 286.657C210.76 286.037 210.492 285.565 210.141 285.24C209.793 284.915 209.373 284.753 208.883 284.753C208.147 284.753 207.572 285.116 207.158 285.842C206.743 286.564 206.536 287.587 206.536 288.909C206.536 289.791 206.629 290.54 206.815 291.156C207 291.773 207.267 292.242 207.615 292.563C207.966 292.885 208.389 293.045 208.883 293.045ZM217.633 294.139C216.884 294.139 216.246 293.935 215.719 293.528C215.192 293.117 214.789 292.522 214.511 291.743C214.232 290.961 214.093 290.016 214.093 288.909C214.093 287.809 214.232 286.869 214.511 286.09C214.792 285.308 215.197 284.711 215.724 284.3C216.254 283.886 216.89 283.679 217.633 283.679C218.375 283.679 219.01 283.886 219.537 284.3C220.067 284.711 220.472 285.308 220.75 286.09C221.032 286.869 221.173 287.809 221.173 288.909C221.173 290.016 221.033 290.961 220.755 291.743C220.477 292.522 220.074 293.117 219.547 293.528C219.02 293.935 218.382 294.139 217.633 294.139ZM217.633 293.045C218.375 293.045 218.952 292.687 219.363 291.972C219.774 291.256 219.979 290.235 219.979 288.909C219.979 288.027 219.885 287.277 219.696 286.657C219.51 286.037 219.242 285.565 218.891 285.24C218.543 284.915 218.123 284.753 217.633 284.753C216.897 284.753 216.322 285.116 215.908 285.842C215.493 286.564 215.286 287.587 215.286 288.909C215.286 289.791 215.379 290.54 215.565 291.156C215.75 291.773 216.017 292.242 216.365 292.563C216.716 292.885 217.139 293.045 217.633 293.045ZM227.86 287.308L229.092 287.63C228.868 288.153 228.625 288.703 228.364 289.282C228.112 289.851 227.85 290.425 227.58 291.004C227.309 291.573 227.034 292.119 226.754 292.642C226.474 293.155 226.208 293.627 225.956 294.056L224.976 293.734C225.228 293.305 225.489 292.824 225.76 292.292C226.03 291.76 226.292 291.205 226.544 290.626C226.805 290.047 227.048 289.473 227.272 288.904C227.496 288.335 227.692 287.803 227.86 287.308ZM223.268 293.412C223.902 293.393 224.621 293.37 225.424 293.342C226.236 293.314 227.094 293.281 228 293.244C228.914 293.197 229.848 293.155 230.8 293.118C231.761 293.071 232.713 293.029 233.656 292.992L233.628 293.986C232.405 294.051 231.173 294.117 229.932 294.182C228.69 294.257 227.51 294.322 226.39 294.378C225.279 294.434 224.285 294.481 223.408 294.518L223.268 293.412ZM230.548 290.388L231.542 289.912C231.971 290.407 232.405 290.939 232.844 291.508C233.282 292.068 233.688 292.619 234.062 293.16C234.435 293.701 234.734 294.187 234.958 294.616L233.908 295.19C233.684 294.751 233.385 294.257 233.012 293.706C232.648 293.146 232.246 292.577 231.808 291.998C231.378 291.41 230.958 290.873 230.548 290.388ZM226.446 282.646L227.608 282.968C227.3 283.724 226.936 284.457 226.516 285.166C226.096 285.875 225.648 286.538 225.172 287.154C224.696 287.761 224.206 288.293 223.702 288.75C223.636 288.675 223.543 288.591 223.422 288.498C223.3 288.405 223.174 288.311 223.044 288.218C222.913 288.125 222.801 288.05 222.708 287.994C223.221 287.574 223.706 287.084 224.164 286.524C224.63 285.955 225.06 285.339 225.452 284.676C225.844 284.013 226.175 283.337 226.446 282.646ZM231.444 282.646C231.677 283.103 231.952 283.575 232.27 284.06C232.596 284.545 232.942 285.021 233.306 285.488C233.67 285.955 234.034 286.393 234.398 286.804C234.762 287.215 235.107 287.565 235.434 287.854C235.34 287.929 235.238 288.017 235.126 288.12C235.014 288.223 234.906 288.33 234.804 288.442C234.701 288.554 234.612 288.657 234.538 288.75C234.22 288.414 233.875 288.022 233.502 287.574C233.138 287.126 232.769 286.65 232.396 286.146C232.032 285.642 231.677 285.129 231.332 284.606C230.986 284.074 230.683 283.561 230.422 283.066L231.444 282.646ZM238.626 287.532H246.648V288.554H238.626V287.532ZM246.284 287.532H247.376C247.376 287.532 247.376 287.565 247.376 287.63C247.376 287.695 247.376 287.77 247.376 287.854C247.376 287.929 247.371 287.989 247.362 288.036C247.306 289.128 247.25 290.057 247.194 290.822C247.147 291.578 247.086 292.208 247.012 292.712C246.946 293.216 246.872 293.613 246.788 293.902C246.704 294.191 246.596 294.401 246.466 294.532C246.326 294.709 246.172 294.831 246.004 294.896C245.836 294.971 245.63 295.017 245.388 295.036C245.154 295.055 244.832 295.059 244.422 295.05C244.02 295.05 243.6 295.036 243.162 295.008C243.152 294.849 243.115 294.672 243.05 294.476C242.994 294.28 242.914 294.107 242.812 293.958C243.269 293.995 243.694 294.019 244.086 294.028C244.478 294.047 244.758 294.056 244.926 294.056C245.066 294.056 245.182 294.042 245.276 294.014C245.369 293.986 245.448 293.939 245.514 293.874C245.654 293.743 245.766 293.463 245.85 293.034C245.943 292.595 246.022 291.951 246.088 291.102C246.162 290.243 246.228 289.123 246.284 287.742V287.532ZM240.544 282.52L241.664 282.842C241.318 283.626 240.912 284.377 240.446 285.096C239.988 285.815 239.484 286.473 238.934 287.07C238.392 287.667 237.828 288.19 237.24 288.638C237.174 288.563 237.086 288.475 236.974 288.372C236.862 288.269 236.745 288.167 236.624 288.064C236.512 287.961 236.414 287.877 236.33 287.812C236.927 287.42 237.492 286.949 238.024 286.398C238.556 285.847 239.036 285.245 239.466 284.592C239.895 283.929 240.254 283.239 240.544 282.52ZM245.43 282.492C245.654 282.959 245.929 283.439 246.256 283.934C246.582 284.419 246.937 284.891 247.32 285.348C247.702 285.796 248.094 286.216 248.496 286.608C248.906 286.991 249.303 287.317 249.686 287.588C249.592 287.663 249.485 287.756 249.364 287.868C249.252 287.971 249.144 288.078 249.042 288.19C248.948 288.302 248.869 288.409 248.804 288.512C248.412 288.195 248.015 287.826 247.614 287.406C247.212 286.977 246.816 286.515 246.424 286.02C246.041 285.525 245.677 285.012 245.332 284.48C244.996 283.948 244.692 283.421 244.422 282.898L245.43 282.492ZM241.58 287.826H242.714C242.639 288.591 242.518 289.338 242.35 290.066C242.182 290.794 241.925 291.48 241.58 292.124C241.234 292.768 240.754 293.351 240.138 293.874C239.531 294.397 238.738 294.835 237.758 295.19C237.711 295.097 237.65 294.989 237.576 294.868C237.501 294.756 237.417 294.644 237.324 294.532C237.24 294.429 237.156 294.341 237.072 294.266C237.986 293.967 238.724 293.589 239.284 293.132C239.853 292.665 240.292 292.147 240.6 291.578C240.908 291.009 241.132 290.407 241.272 289.772C241.412 289.137 241.514 288.489 241.58 287.826Z" fill="white"/>
<path d="M202.634 149.818V160H201.401V151.111H201.341L198.855 152.761V151.509L201.401 149.818H202.634ZM208.744 160.139C208.16 160.139 207.635 160.023 207.168 159.791C206.7 159.559 206.326 159.241 206.044 158.837C205.762 158.432 205.608 157.972 205.582 157.455H206.775C206.821 157.915 207.03 158.296 207.401 158.598C207.776 158.896 208.223 159.045 208.744 159.045C209.161 159.045 209.532 158.948 209.857 158.752C210.185 158.557 210.442 158.288 210.628 157.947C210.817 157.602 210.911 157.213 210.911 156.778C210.911 156.334 210.813 155.938 210.618 155.59C210.426 155.239 210.161 154.962 209.822 154.76C209.484 154.558 209.098 154.455 208.664 154.452C208.353 154.448 208.033 154.496 207.705 154.596C207.376 154.692 207.106 154.816 206.894 154.969L205.741 154.83L206.357 149.818H211.647V150.912H207.391L207.033 153.915H207.093C207.302 153.749 207.564 153.612 207.879 153.502C208.193 153.393 208.522 153.338 208.863 153.338C209.486 153.338 210.041 153.487 210.528 153.786C211.019 154.08 211.403 154.485 211.682 154.999C211.964 155.512 212.104 156.099 212.104 156.759C212.104 157.408 211.959 157.988 211.667 158.499C211.379 159.006 210.981 159.407 210.474 159.702C209.967 159.993 209.39 160.139 208.744 160.139ZM217.4 160.139C216.651 160.139 216.013 159.935 215.486 159.528C214.959 159.117 214.557 158.522 214.278 157.743C214 156.961 213.861 156.016 213.861 154.909C213.861 153.809 214 152.869 214.278 152.09C214.56 151.308 214.964 150.711 215.491 150.3C216.022 149.886 216.658 149.679 217.4 149.679C218.143 149.679 218.778 149.886 219.305 150.3C219.835 150.711 220.239 151.308 220.518 152.09C220.799 152.869 220.94 153.809 220.94 154.909C220.94 156.016 220.801 156.961 220.523 157.743C220.244 158.522 219.841 159.117 219.314 159.528C218.787 159.935 218.149 160.139 217.4 160.139ZM217.4 159.045C218.143 159.045 218.72 158.687 219.131 157.972C219.541 157.256 219.747 156.235 219.747 154.909C219.747 154.027 219.653 153.277 219.464 152.657C219.278 152.037 219.01 151.565 218.658 151.24C218.31 150.915 217.891 150.753 217.4 150.753C216.665 150.753 216.09 151.116 215.675 151.842C215.261 152.564 215.054 153.587 215.054 154.909C215.054 155.791 215.147 156.54 215.332 157.156C215.518 157.773 215.785 158.242 216.133 158.563C216.484 158.885 216.907 159.045 217.4 159.045ZM227.627 153.308L228.859 153.63C228.635 154.153 228.393 154.703 228.131 155.282C227.879 155.851 227.618 156.425 227.347 157.004C227.077 157.573 226.801 158.119 226.521 158.642C226.241 159.155 225.975 159.627 225.723 160.056L224.743 159.734C224.995 159.305 225.257 158.824 225.527 158.292C225.798 157.76 226.059 157.205 226.311 156.626C226.573 156.047 226.815 155.473 227.039 154.904C227.263 154.335 227.459 153.803 227.627 153.308ZM223.035 159.412C223.67 159.393 224.389 159.37 225.191 159.342C226.003 159.314 226.862 159.281 227.767 159.244C228.682 159.197 229.615 159.155 230.567 159.118C231.529 159.071 232.481 159.029 233.423 158.992L233.395 159.986C232.173 160.051 230.941 160.117 229.699 160.182C228.458 160.257 227.277 160.322 226.157 160.378C225.047 160.434 224.053 160.481 223.175 160.518L223.035 159.412ZM230.315 156.388L231.309 155.912C231.739 156.407 232.173 156.939 232.611 157.508C233.05 158.068 233.456 158.619 233.829 159.16C234.203 159.701 234.501 160.187 234.725 160.616L233.675 161.19C233.451 160.751 233.153 160.257 232.779 159.706C232.415 159.146 232.014 158.577 231.575 157.998C231.146 157.41 230.726 156.873 230.315 156.388ZM226.213 148.646L227.375 148.968C227.067 149.724 226.703 150.457 226.283 151.166C225.863 151.875 225.415 152.538 224.939 153.154C224.463 153.761 223.973 154.293 223.469 154.75C223.404 154.675 223.311 154.591 223.189 154.498C223.068 154.405 222.942 154.311 222.811 154.218C222.681 154.125 222.569 154.05 222.475 153.994C222.989 153.574 223.474 153.084 223.931 152.524C224.398 151.955 224.827 151.339 225.219 150.676C225.611 150.013 225.943 149.337 226.213 148.646ZM231.211 148.646C231.445 149.103 231.72 149.575 232.037 150.06C232.364 150.545 232.709 151.021 233.073 151.488C233.437 151.955 233.801 152.393 234.165 152.804C234.529 153.215 234.875 153.565 235.201 153.854C235.108 153.929 235.005 154.017 234.893 154.12C234.781 154.223 234.674 154.33 234.571 154.442C234.469 154.554 234.38 154.657 234.305 154.75C233.988 154.414 233.643 154.022 233.269 153.574C232.905 153.126 232.537 152.65 232.163 152.146C231.799 151.642 231.445 151.129 231.099 150.606C230.754 150.074 230.451 149.561 230.189 149.066L231.211 148.646ZM238.393 153.532H246.415V154.554H238.393V153.532ZM246.051 153.532H247.143C247.143 153.532 247.143 153.565 247.143 153.63C247.143 153.695 247.143 153.77 247.143 153.854C247.143 153.929 247.139 153.989 247.129 154.036C247.073 155.128 247.017 156.057 246.961 156.822C246.915 157.578 246.854 158.208 246.779 158.712C246.714 159.216 246.639 159.613 246.555 159.902C246.471 160.191 246.364 160.401 246.233 160.532C246.093 160.709 245.939 160.831 245.771 160.896C245.603 160.971 245.398 161.017 245.155 161.036C244.922 161.055 244.6 161.059 244.189 161.05C243.788 161.05 243.368 161.036 242.929 161.008C242.92 160.849 242.883 160.672 242.817 160.476C242.761 160.28 242.682 160.107 242.579 159.958C243.037 159.995 243.461 160.019 243.853 160.028C244.245 160.047 244.525 160.056 244.693 160.056C244.833 160.056 244.95 160.042 245.043 160.014C245.137 159.986 245.216 159.939 245.281 159.874C245.421 159.743 245.533 159.463 245.617 159.034C245.711 158.595 245.79 157.951 245.855 157.102C245.93 156.243 245.995 155.123 246.051 153.742V153.532ZM240.311 148.52L241.431 148.842C241.086 149.626 240.68 150.377 240.213 151.096C239.756 151.815 239.252 152.473 238.701 153.07C238.16 153.667 237.595 154.19 237.007 154.638C236.942 154.563 236.853 154.475 236.741 154.372C236.629 154.269 236.513 154.167 236.391 154.064C236.279 153.961 236.181 153.877 236.097 153.812C236.695 153.42 237.259 152.949 237.791 152.398C238.323 151.847 238.804 151.245 239.233 150.592C239.663 149.929 240.022 149.239 240.311 148.52ZM245.197 148.492C245.421 148.959 245.697 149.439 246.023 149.934C246.35 150.419 246.705 150.891 247.087 151.348C247.47 151.796 247.862 152.216 248.263 152.608C248.674 152.991 249.071 153.317 249.453 153.588C249.36 153.663 249.253 153.756 249.131 153.868C249.019 153.971 248.912 154.078 248.809 154.19C248.716 154.302 248.637 154.409 248.571 154.512C248.179 154.195 247.783 153.826 247.381 153.406C246.98 152.977 246.583 152.515 246.191 152.02C245.809 151.525 245.445 151.012 245.099 150.48C244.763 149.948 244.46 149.421 244.189 148.898L245.197 148.492ZM241.347 153.826H242.481C242.407 154.591 242.285 155.338 242.117 156.066C241.949 156.794 241.693 157.48 241.347 158.124C241.002 158.768 240.521 159.351 239.905 159.874C239.299 160.397 238.505 160.835 237.525 161.19C237.479 161.097 237.418 160.989 237.343 160.868C237.269 160.756 237.185 160.644 237.091 160.532C237.007 160.429 236.923 160.341 236.839 160.266C237.754 159.967 238.491 159.589 239.051 159.132C239.621 158.665 240.059 158.147 240.367 157.578C240.675 157.009 240.899 156.407 241.039 155.772C241.179 155.137 241.282 154.489 241.347 153.826Z" fill="white"/>
</svg>
